<svg width="22" height="62" viewBox="0 0 22 62" fill="none" xmlns="http://www.w3.org/2000/svg">
<path d="M15 6H7V8H15V6Z" fill="#7C7CE3"/>
<path d="M21 32H1V34H21V32Z" fill="#7C7CE3"/>
<path d="M21 52H1V54H21V52Z" fill="#7C7CE3"/>
<path d="M19 62H3C1.3 62 0 60.7 0 59V29C0 25.8 2.1 22.5 6 22.1V2C6 0.9 6.9 0 8 0H14C15.1 0 16 0.9 16 2V22.1C19.9 22.6 22 25.8 22 29V59C22 60.7 20.7 62 19 62ZM7 24C3.6 24 2 26.6 2 29V59C2 59.6 2.4 60 3 60H19C19.6 60 20 59.6 20 59V29C20 26.6 18.4 24 15 24H14V2H8V24H7Z" fill="#7C7CE3"/>
<path d="M5 39H3V29C3 27 4.4 25 7 25V27C5.5 27 5 28.1 5 29V39Z" fill="#7C7CE3"/>
<path d="M12 48H10V50H12V48Z" fill="#7C7CE3"/>
<path d="M16 48H14V50H16V48Z" fill="#7C7CE3"/>
<path d="M8 48H6V50H8V48Z" fill="#7C7CE3"/>
</svg>
