<svg width="40" height="40" viewBox="0 0 40 40" fill="none" xmlns="http://www.w3.org/2000/svg">
<mask id="mask0_52_42" style="mask-type:alpha" maskUnits="userSpaceOnUse" x="0" y="0" width="40" height="40">
<path d="M38.2666 13.6C34.9333 9.59995 28.1333 7.19995 20 7.19995C12 7.19995 5.06663 9.59995 1.7333 13.6C0.399967 15.2 -0.133367 17.0666 0.266633 18.9333C0.5333 20.5333 1.59997 22 2.9333 22.6666C3.7333 23.0666 4.66663 23.2 5.46663 23.2C5.86663 23.2 6.39997 23.1999 6.79997 23.0666C6.5333 23.8666 6.39997 24.6666 6.26663 25.6C5.99997 28 6.39997 29.7333 7.59997 31.0666C8.9333 32.6666 11.0666 32.8 11.8666 32.8C12.1333 32.8 12.2666 32.8 12.2666 32.8H27.8666C29.6 32.8 31.2 32.1333 32.1333 30.9333C33.4666 29.3333 33.7333 27.0666 33.6 25.6C33.4666 24.8 33.3333 23.8666 33.0666 23.0666C33.4666 23.1999 34 23.2 34.5333 23.2C35.3333 23.2 36.2666 23.0666 37.0666 22.6666C38.4 22 39.4666 20.5333 39.7333 18.9333C40 17.0666 39.6 15.0666 38.2666 13.6ZM30.6666 29.6C30 30.4 29.0666 30.8 27.8666 30.8H12.1333C12 30.8 10.1333 30.9333 9.06663 29.7333C8.39997 28.9333 8.1333 27.6 8.26663 25.8666C8.9333 20.5333 12.5333 17.3333 13.2 16.8C15.0666 15.3333 17.6 14.4 20.1333 14.4C22.6666 14.4 24.9333 15.2 26.6666 16.8C29.2 18.9333 31.0666 22.5333 31.6 25.8666C31.7333 26.9333 31.6 28.5333 30.6666 29.6ZM37.7333 18.5333C37.4666 19.6 36.9333 20.5333 36 20.9333C34.5333 21.7333 32.5333 21.0666 32 20.8C31.0666 18.6666 29.6 16.8 27.8666 15.3333C25.7333 13.4666 22.9333 12.5333 20 12.5333C17.0666 12.5333 14.1333 13.6 11.8666 15.3333C11.3333 15.7333 9.06663 17.7333 7.59997 20.9333C6.9333 21.1999 5.19997 21.7333 3.86663 20.9333C3.06663 20.5333 2.39997 19.6 2.1333 18.5333C1.86663 17.3333 2.26663 16 3.19997 14.9333C6.26663 11.3333 12.5333 9.19995 20 9.19995C27.4666 9.19995 33.7333 11.3333 36.6666 14.9333C37.6 16 38 17.2 37.7333 18.5333ZM20 16.5333C17.0666 16.5333 14.5333 18.6666 14.5333 21.2C14.5333 23.7333 16.9333 25.8666 20 25.8666C22.9333 25.8666 25.4666 23.7333 25.4666 21.2C25.4666 18.6666 22.9333 16.5333 20 16.5333ZM20 23.8666C18.1333 23.8666 16.5333 22.6666 16.5333 21.2C16.5333 19.7333 18 18.5333 20 18.5333C21.8666 18.5333 23.4666 19.7333 23.4666 21.2C23.4666 22.6666 21.8666 23.8666 20 23.8666Z" fill="#262324"/>
</mask>
<g mask="url(#mask0_52_42)">
<rect width="40" height="40" fill="white"/>
</g>
</svg>
