<svg width="66" height="46" viewBox="0 0 66 46" fill="none" xmlns="http://www.w3.org/2000/svg">
<path d="M11.5343 36.9205L9.52633 38.696C9.35991 38.8432 9.15288 38.9155 8.94691 38.9155C8.70488 38.9155 8.46408 38.8157 8.29118 38.6201C7.97093 38.258 8.00489 37.705 8.36696 37.3849L10.3749 35.6094C11.3075 34.7848 11.8113 33.5512 11.7226 32.3096L11.5308 29.6268C11.4181 28.0489 11.4337 26.3781 12.3003 24.8483L14.7476 20.2769C14.9891 19.9082 14.8994 19.4156 14.5436 19.1555C14.1936 18.8997 13.7069 18.9578 13.4267 19.2856L6.93074 28.3089C6.64864 28.7009 6.10176 28.7902 5.70941 28.5079C5.31724 28.2254 5.22816 27.6787 5.51044 27.2866L10.6598 20.1357V16.9446L4.05934 24.7779C3.49776 25.4447 3.14829 26.2546 3.04906 27.1203L2.20626 34.4253C1.66919 37.0692 2.97066 39.7758 5.37149 41.0067C7.75849 42.231 10.6955 41.7214 12.5318 39.7704L14.9002 36.5754C15.2387 36.1188 15.4599 35.5798 15.546 35.0189H12.9437C12.6123 35.7366 12.1361 36.3881 11.5343 36.9205Z" fill="white"/>
<path d="M12.4104 14.7726V17.8393C13.3017 17.0983 14.607 17.0339 15.5767 17.7428C16.6736 18.5443 16.9585 20.0553 16.2354 21.1998L13.8274 25.7038C13.1855 26.8311 13.1832 28.1958 13.2766 29.5023L13.4684 32.1851C13.4943 32.5487 13.4831 32.9115 13.4403 33.2692H52.5603C52.5174 32.9115 52.5062 32.5487 52.5323 32.1851L52.7239 29.5023C52.8172 28.1956 52.8151 26.8309 52.1732 25.7038L52.1618 25.6831L49.7657 21.1996C49.0426 20.0549 49.3273 18.544 50.4246 17.7425C51.3327 17.0789 52.5348 17.0945 53.4157 17.7073V2.66187H12.4104V14.2117C12.4713 14.3928 12.4727 14.5895 12.4104 14.7726ZM17.8396 5.00809C17.8396 4.76642 18.0354 4.57059 18.2771 4.57059H51.3257C51.5674 4.57059 51.7632 4.76642 51.7632 5.00809V15.6843C51.7632 15.926 51.5674 16.1218 51.3257 16.1218C51.084 16.1218 50.8882 15.926 50.8882 15.6843V5.44559H18.7146V30.4856H50.8882V26.6507C50.8882 26.409 51.084 26.2132 51.3257 26.2132C51.5674 26.2132 51.7632 26.409 51.7632 26.6507V30.9231C51.7632 31.1648 51.5674 31.3606 51.3257 31.3606H18.2771C18.0354 31.3606 17.8396 31.1648 17.8396 30.9231V5.00809Z" fill="white"/>
<path d="M63.7818 34.3512L62.9507 27.1205C62.8513 26.2546 62.5018 25.4445 61.9403 24.7781L55.165 16.7371V19.8907L60.4893 27.2868C60.7716 27.6789 60.6825 28.2258 60.2904 28.5081C59.8984 28.7904 59.3513 28.7013 59.069 28.3091L52.5732 19.2858C52.2925 18.9578 51.8062 18.8995 51.4562 19.1556C51.1002 19.4156 51.0106 19.9082 51.2521 20.277L51.292 20.3438L53.6995 24.8483C54.5663 26.3778 54.5817 28.0487 54.469 29.6267L54.2774 32.3094C54.1886 33.5512 54.6925 34.7848 55.6249 35.6092L57.6328 37.3848C57.9947 37.705 58.0288 38.2579 57.7086 38.6199C57.5359 38.8154 57.2949 38.9153 57.0529 38.9153C56.8469 38.9153 56.64 38.8431 56.4734 38.6959L54.4655 36.9203C53.8635 36.388 53.3875 35.7363 53.0559 35.019H50.4536C50.5397 35.5797 50.7609 36.1188 51.0995 36.5754L53.468 39.7704C55.3041 41.7215 58.2413 42.2312 60.6283 41.0068C63.0291 39.7756 64.3306 37.0693 63.7935 34.4254L63.7818 34.3512Z" fill="white"/>
<path d="M65.6388 36.2176C65.6927 35.5251 65.6558 34.8186 65.5165 34.115L64.6894 26.9205C64.5505 25.7116 64.0626 24.5808 63.2784 23.6503L55.1651 14.0211V1.78687C55.1651 1.30369 54.7734 0.911865 54.2901 0.911865H11.5353C11.0519 0.911865 10.6603 1.30369 10.6603 1.78687V14.229L2.72158 23.6507C1.93758 24.5813 1.44968 25.7122 1.31073 26.9209L0.483854 34.1151C0.344554 34.8185 0.307629 35.5248 0.361529 36.2171C0.0516044 38.3237 0.584829 40.4654 1.85095 42.1454C3.12425 43.8348 5.00463 44.8684 7.14558 45.0554C7.39565 45.0773 7.64433 45.0882 7.89073 45.0882C8.89295 45.0882 9.85685 44.9086 10.7137 44.5591C10.9373 44.468 11.0448 44.2125 10.9534 43.9888C10.8621 43.7652 10.6071 43.6575 10.3831 43.7489C9.44403 44.132 8.35063 44.2828 7.22188 44.1838C5.33118 44.0186 3.672 43.1077 2.5499 41.6188C2.14373 41.08 1.8247 40.4865 1.59283 39.8611C2.31715 40.9832 3.33075 41.9271 4.57343 42.5643C5.69465 43.1394 6.91003 43.4176 8.11648 43.4176C10.2415 43.4176 12.3392 42.554 13.8476 40.9263L16.3067 37.6178C16.8672 36.8616 17.2123 35.9544 17.3078 35.0192H48.6929C48.7884 35.9542 49.1335 36.8614 49.6942 37.6178L52.0922 40.8526L52.1533 40.9263C53.6616 42.5542 55.7592 43.4178 57.8844 43.4176C59.0908 43.4176 60.3064 43.1392 61.4273 42.5643C62.6698 41.9271 63.6835 40.9832 64.4077 39.8614C64.1758 40.4869 63.8566 41.0801 63.4506 41.619C62.3285 43.1077 60.6693 44.0187 58.7788 44.1839C57.6502 44.2828 56.5568 44.1323 55.6174 43.7491C55.3933 43.6577 55.1385 43.7652 55.0471 43.989C54.9558 44.2128 55.0632 44.4681 55.2869 44.5593C56.1437 44.9088 57.1076 45.0883 58.1098 45.0883C58.3562 45.0883 58.605 45.0775 58.8551 45.0556C60.9959 44.8685 62.8763 43.835 64.1496 42.1455C65.4152 40.4655 65.9486 38.3242 65.6388 36.2176ZM53.4151 2.66187V17.7075C52.5341 17.0945 51.332 17.0791 50.424 17.7427C49.3267 18.5442 49.0422 20.0551 49.7651 21.1998L52.1612 25.6833L52.1726 25.7039C52.8145 26.8309 52.8167 28.1956 52.7233 29.5025L52.5317 32.1852C52.5058 32.5489 52.517 32.9117 52.5597 33.2694H13.4402C13.483 32.9117 13.4942 32.5489 13.4683 32.1852L13.2765 29.5025C13.1833 28.1959 13.1854 26.8313 13.8273 25.7039L16.2351 21.2C16.9582 20.0555 16.6733 18.5445 15.5764 17.743C14.6067 17.0341 13.3014 17.0985 12.4101 17.8394V14.7727C12.4724 14.5897 12.471 14.393 12.4101 14.2119V2.66187H53.4151ZM14.9005 36.5755L12.5321 39.7706C10.6958 41.7217 7.75878 42.2313 5.37178 41.007C2.97095 39.7759 1.66948 37.0695 2.20655 34.4256L3.04935 27.1206C3.14858 26.255 3.49805 25.4449 4.05963 24.7782L10.6601 16.9448V20.136L5.51073 27.2868C5.22845 27.679 5.31753 28.2259 5.7097 28.5081C6.10188 28.7904 6.64875 28.7013 6.93103 28.3092L13.427 19.2858C13.7072 18.958 14.1939 18.8999 14.5439 19.1558C14.8997 19.4158 14.9894 19.9085 14.7479 20.2772L12.3006 24.8485C11.434 26.3784 11.4184 28.0491 11.5311 29.6271L11.7229 32.3098C11.8116 33.5515 11.3078 34.785 10.3752 35.6096L8.36708 37.3852C8.00518 37.7054 7.97105 38.2583 8.2913 38.6203C8.4642 38.8158 8.705 38.9157 8.94703 38.9157C9.153 38.9157 9.35985 38.8433 9.52645 38.6963L11.5344 36.9207C12.1362 36.3884 12.6124 35.7367 12.944 35.0194H15.5463C15.4602 35.5799 15.239 36.1191 14.9005 36.5755ZM60.6286 41.007C58.2416 42.2315 55.3044 41.7217 53.4683 39.7706L51.0998 36.5756C50.7614 36.1191 50.5402 35.5799 50.4539 35.0192H53.0561C53.3878 35.7367 53.8638 36.3882 54.4658 36.9206L56.4737 38.6961C56.6401 38.8433 56.8472 38.9156 57.0531 38.9156C57.2952 38.9156 57.5361 38.8158 57.7089 38.6202C58.0291 38.2581 57.9952 37.7051 57.6331 37.385L55.6251 35.6095C54.6927 34.7849 54.1889 33.5513 54.2776 32.3097L54.4693 29.6269C54.582 28.0488 54.5666 26.378 53.6998 24.8485L51.2923 20.344L51.2524 20.2772C51.0109 19.9085 51.1005 19.4158 51.4565 19.1558C51.8065 18.8998 52.2928 18.958 52.5735 19.286L59.0693 28.3093C59.3514 28.7015 59.8985 28.7906 60.2906 28.5083C60.6828 28.2259 60.7719 27.6792 60.4896 27.287L55.1652 19.891V16.7373L61.9405 24.7784C62.5021 25.4449 62.8516 26.2548 62.951 27.1207L63.7821 34.3514L63.7938 34.4256C64.3309 37.0695 63.0294 39.7759 60.6286 41.007Z" fill="white"/>
<path d="M18.2771 31.3606H51.3257C51.5674 31.3606 51.7632 31.1648 51.7632 30.9231V26.6507C51.7632 26.409 51.5674 26.2132 51.3257 26.2132C51.084 26.2132 50.8882 26.409 50.8882 26.6507V30.4856H18.7146V5.44556H50.8882V15.6843C50.8882 15.926 51.084 16.1218 51.3257 16.1218C51.5674 16.1218 51.7632 15.926 51.7632 15.6843V5.00806C51.7632 4.76638 51.5674 4.57056 51.3257 4.57056H18.2771C18.0354 4.57056 17.8396 4.76638 17.8396 5.00806V30.9231C17.8396 31.1648 18.0354 31.3606 18.2771 31.3606Z" fill="white"/>
</svg>
