<svg width="56" height="56" viewBox="0 0 56 56" fill="none" xmlns="http://www.w3.org/2000/svg">
<g clip-path="url(#clip0_60_7)">
<path d="M27.1775 56H4.3225C3.17646 55.9988 2.07769 55.5431 1.26731 54.7327C0.456935 53.9223 0.0011582 52.8235 0 51.6775L0 4.3225C0.0011582 3.17646 0.456935 2.07769 1.26731 1.26731C2.07769 0.456935 3.17646 0.0011582 4.3225 0L27.1775 0C28.3235 0.0011582 29.4223 0.456935 30.2327 1.26731C31.0431 2.07769 31.4988 3.17646 31.5 4.3225V51.6775C31.4988 52.8235 31.0431 53.9223 30.2327 54.7327C29.4223 55.5431 28.3235 55.9988 27.1775 56ZM4.3225 1.75C3.64059 1.75116 2.98693 2.02256 2.50475 2.50475C2.02256 2.98693 1.75116 3.64059 1.75 4.3225V51.6775C1.75116 52.3594 2.02256 53.0131 2.50475 53.4953C2.98693 53.9774 3.64059 54.2488 4.3225 54.25H27.1775C27.8594 54.2488 28.5131 53.9774 28.9953 53.4953C29.4774 53.0131 29.7488 52.3594 29.75 51.6775V4.3225C29.7488 3.64059 29.4774 2.98693 28.9953 2.50475C28.5131 2.02256 27.8594 1.75116 27.1775 1.75H4.3225Z" fill="white"/>
<path d="M9.84375 14.4375C9.02172 14.4375 8.21815 14.1937 7.53466 13.737C6.85117 13.2804 6.31845 12.6312 6.00388 11.8718C5.6893 11.1123 5.60699 10.2766 5.76736 9.47041C5.92773 8.66417 6.32358 7.9236 6.90484 7.34234C7.4861 6.76108 8.22667 6.36523 9.03291 6.20486C9.83914 6.04449 10.6748 6.1268 11.4343 6.44138C12.1937 6.75595 12.8429 7.28867 13.2995 7.97216C13.7562 8.65565 14 9.45922 14 10.2813C13.9988 11.3832 13.5606 12.4397 12.7814 13.2189C12.0022 13.9981 10.9457 14.4363 9.84375 14.4375ZM9.84375 7.875C9.36784 7.875 8.90262 8.01613 8.50691 8.28053C8.11121 8.54493 7.80279 8.92074 7.62067 9.36042C7.43854 9.8001 7.39089 10.2839 7.48374 10.7507C7.57658 11.2175 7.80576 11.6462 8.14228 11.9827C8.4788 12.3192 8.90755 12.5484 9.37432 12.6413C9.84108 12.7341 10.3249 12.6865 10.7646 12.5043C11.2043 12.3222 11.5801 12.0138 11.8445 11.6181C12.1089 11.2224 12.25 10.7572 12.25 10.2813C12.2488 9.64343 11.995 9.03206 11.5439 8.58105C11.0929 8.13004 10.4816 7.87616 9.84375 7.875Z" fill="white"/>
<path d="M21.6563 14.4375C20.8342 14.4375 20.0307 14.1937 19.3472 13.737C18.6637 13.2804 18.131 12.6312 17.8164 11.8718C17.5018 11.1123 17.4195 10.2766 17.5799 9.47041C17.7402 8.66417 18.1361 7.9236 18.7173 7.34234C19.2986 6.76108 20.0392 6.36523 20.8454 6.20486C21.6516 6.04449 22.4873 6.1268 23.2468 6.44138C24.0062 6.75595 24.6554 7.28867 25.112 7.97216C25.5687 8.65565 25.8125 9.45922 25.8125 10.2813C25.8113 11.3832 25.3731 12.4397 24.5939 13.2189C23.8147 13.9981 22.7582 14.4363 21.6563 14.4375ZM21.6563 7.875C21.1803 7.875 20.7151 8.01613 20.3194 8.28053C19.9237 8.54493 19.6153 8.92074 19.4332 9.36042C19.251 9.8001 19.2034 10.2839 19.2962 10.7507C19.3891 11.2175 19.6183 11.6462 19.9548 11.9827C20.2913 12.3192 20.72 12.5484 21.1868 12.6413C21.6536 12.7341 22.1374 12.6865 22.5771 12.5043C23.0168 12.3222 23.3926 12.0138 23.657 11.6181C23.9214 11.2224 24.0625 10.7572 24.0625 10.2813C24.0613 9.64343 23.8075 9.03206 23.3564 8.58105C22.9054 8.13004 22.2941 7.87616 21.6563 7.875Z" fill="white"/>
<path d="M9.84375 26.25C9.02172 26.25 8.21815 26.0062 7.53466 25.5495C6.85117 25.0929 6.31845 24.4437 6.00388 23.6843C5.6893 22.9248 5.60699 22.0891 5.76736 21.2829C5.92773 20.4767 6.32358 19.7361 6.90484 19.1548C7.4861 18.5736 8.22667 18.1777 9.03291 18.0174C9.83914 17.857 10.6748 17.9393 11.4343 18.2539C12.1937 18.5685 12.8429 19.1012 13.2995 19.7847C13.7562 20.4682 14 21.2717 14 22.0938C13.9988 23.1957 13.5606 24.2522 12.7814 25.0314C12.0022 25.8106 10.9457 26.2488 9.84375 26.25ZM9.84375 19.6875C9.36784 19.6875 8.90262 19.8286 8.50691 20.093C8.11121 20.3574 7.80279 20.7332 7.62067 21.1729C7.43854 21.6126 7.39089 22.0964 7.48374 22.5632C7.57658 23.03 7.80576 23.4587 8.14228 23.7952C8.4788 24.1317 8.90755 24.3609 9.37432 24.4538C9.84108 24.5466 10.3249 24.499 10.7646 24.3168C11.2043 24.1347 11.5801 23.8263 11.8445 23.4306C12.1089 23.0349 12.25 22.5697 12.25 22.0938C12.2488 21.4559 11.995 20.8446 11.5439 20.3936C11.0929 19.9425 10.4816 19.6887 9.84375 19.6875Z" fill="white"/>
<path d="M21.6563 26.25C20.8342 26.25 20.0307 26.0062 19.3472 25.5495C18.6637 25.0929 18.131 24.4437 17.8164 23.6843C17.5018 22.9248 17.4195 22.0891 17.5799 21.2829C17.7402 20.4767 18.1361 19.7361 18.7173 19.1548C19.2986 18.5736 20.0392 18.1777 20.8454 18.0174C21.6516 17.857 22.4873 17.9393 23.2468 18.2539C24.0062 18.5685 24.6554 19.1012 25.112 19.7847C25.5687 20.4682 25.8125 21.2717 25.8125 22.0938C25.8113 23.1957 25.3731 24.2522 24.5939 25.0314C23.8147 25.8106 22.7582 26.2488 21.6563 26.25ZM21.6563 19.6875C21.1803 19.6875 20.7151 19.8286 20.3194 20.093C19.9237 20.3574 19.6153 20.7332 19.4332 21.1729C19.251 21.6126 19.2034 22.0964 19.2962 22.5632C19.3891 23.03 19.6183 23.4587 19.9548 23.7952C20.2913 24.1317 20.72 24.3609 21.1868 24.4538C21.6536 24.5466 22.1374 24.499 22.5771 24.3168C23.0168 24.1347 23.3926 23.8263 23.657 23.4306C23.9214 23.0349 24.0625 22.5697 24.0625 22.0938C24.0613 21.4559 23.8075 20.8446 23.3564 20.3936C22.9054 19.9425 22.2941 19.6887 21.6563 19.6875Z" fill="white"/>
<path d="M9.84375 38.0625C9.02172 38.0625 8.21815 37.8187 7.53466 37.362C6.85117 36.9054 6.31845 36.2562 6.00388 35.4968C5.6893 34.7373 5.60699 33.9016 5.76736 33.0954C5.92773 32.2892 6.32358 31.5486 6.90484 30.9673C7.4861 30.3861 8.22667 29.9902 9.03291 29.8299C9.83914 29.6695 10.6748 29.7518 11.4343 30.0664C12.1937 30.381 12.8429 30.9137 13.2995 31.5972C13.7562 32.2807 14 33.0842 14 33.9063C13.9988 35.0082 13.5606 36.0647 12.7814 36.8439C12.0022 37.6231 10.9457 38.0613 9.84375 38.0625ZM9.84375 31.5C9.36784 31.5 8.90262 31.6411 8.50691 31.9055C8.11121 32.1699 7.80279 32.5457 7.62067 32.9854C7.43854 33.4251 7.39089 33.9089 7.48374 34.3757C7.57658 34.8425 7.80576 35.2712 8.14228 35.6077C8.4788 35.9442 8.90755 36.1734 9.37432 36.2663C9.84108 36.3591 10.3249 36.3115 10.7646 36.1293C11.2043 35.9472 11.5801 35.6388 11.8445 35.2431C12.1089 34.8474 12.25 34.3822 12.25 33.9063C12.2488 33.2684 11.995 32.6571 11.5439 32.2061C11.0929 31.755 10.4816 31.5012 9.84375 31.5Z" fill="white"/>
<path d="M21.6563 38.0625C20.8342 38.0625 20.0307 37.8187 19.3472 37.362C18.6637 36.9054 18.131 36.2562 17.8164 35.4968C17.5018 34.7373 17.4195 33.9016 17.5799 33.0954C17.7402 32.2892 18.1361 31.5486 18.7173 30.9673C19.2986 30.3861 20.0392 29.9902 20.8454 29.8299C21.6516 29.6695 22.4873 29.7518 23.2468 30.0664C24.0062 30.381 24.6554 30.9137 25.112 31.5972C25.5687 32.2807 25.8125 33.0842 25.8125 33.9063C25.8113 35.0082 25.3731 36.0647 24.5939 36.8439C23.8147 37.6231 22.7582 38.0613 21.6563 38.0625ZM21.6563 31.5C21.1803 31.5 20.7151 31.6411 20.3194 31.9055C19.9237 32.1699 19.6153 32.5457 19.4332 32.9854C19.251 33.4251 19.2034 33.9089 19.2962 34.3757C19.3891 34.8425 19.6183 35.2712 19.9548 35.6077C20.2913 35.9442 20.72 36.1734 21.1868 36.2663C21.6536 36.3591 22.1374 36.3115 22.5771 36.1293C23.0168 35.9472 23.3926 35.6388 23.657 35.2431C23.9214 34.8474 24.0625 34.3822 24.0625 33.9063C24.0613 33.2684 23.8075 32.6571 23.3564 32.2061C22.9054 31.755 22.2941 31.5012 21.6563 31.5Z" fill="white"/>
<path d="M9.84375 49.875C9.02172 49.875 8.21815 49.6312 7.53466 49.1745C6.85117 48.7179 6.31845 48.0687 6.00388 47.3093C5.6893 46.5498 5.60699 45.7141 5.76736 44.9079C5.92773 44.1017 6.32358 43.3611 6.90484 42.7798C7.4861 42.1986 8.22667 41.8027 9.03291 41.6424C9.83914 41.482 10.6748 41.5643 11.4343 41.8789C12.1937 42.1935 12.8429 42.7262 13.2995 43.4097C13.7562 44.0932 14 44.8967 14 45.7188C13.9988 46.8207 13.5606 47.8772 12.7814 48.6564C12.0022 49.4356 10.9457 49.8738 9.84375 49.875ZM9.84375 43.3125C9.36784 43.3125 8.90262 43.4536 8.50691 43.718C8.11121 43.9824 7.80279 44.3582 7.62067 44.7979C7.43854 45.2376 7.39089 45.7214 7.48374 46.1882C7.57658 46.655 7.80576 47.0837 8.14228 47.4202C8.4788 47.7567 8.90755 47.9859 9.37432 48.0788C9.84108 48.1716 10.3249 48.124 10.7646 47.9418C11.2043 47.7597 11.5801 47.4513 11.8445 47.0556C12.1089 46.6599 12.25 46.1947 12.25 45.7188C12.2488 45.0809 11.995 44.4696 11.5439 44.0186C11.0929 43.5675 10.4816 43.3137 9.84375 43.3125Z" fill="white"/>
<path d="M21.6563 49.875C20.8342 49.875 20.0307 49.6312 19.3472 49.1745C18.6637 48.7179 18.131 48.0687 17.8164 47.3093C17.5018 46.5498 17.4195 45.7141 17.5799 44.9079C17.7402 44.1017 18.1361 43.3611 18.7173 42.7798C19.2986 42.1986 20.0392 41.8027 20.8454 41.6424C21.6516 41.482 22.4873 41.5643 23.2468 41.8789C24.0062 42.1935 24.6554 42.7262 25.112 43.4097C25.5687 44.0932 25.8125 44.8967 25.8125 45.7188C25.8113 46.8207 25.3731 47.8772 24.5939 48.6564C23.8147 49.4356 22.7582 49.8738 21.6563 49.875ZM21.6563 43.3125C21.1803 43.3125 20.7151 43.4536 20.3194 43.718C19.9237 43.9824 19.6153 44.3582 19.4332 44.7979C19.251 45.2376 19.2034 45.7214 19.2962 46.1882C19.3891 46.655 19.6183 47.0837 19.9548 47.4202C20.2913 47.7567 20.72 47.9859 21.1868 48.0788C21.6536 48.1716 22.1374 48.124 22.5771 47.9418C23.0168 47.7597 23.3926 47.4513 23.657 47.0556C23.9214 46.6599 24.0625 46.1947 24.0625 45.7188C24.0613 45.0809 23.8075 44.4696 23.3564 44.0186C22.9054 43.5675 22.2941 43.3137 21.6563 43.3125Z" fill="white"/>
<path d="M52.4563 24.8412C51.6481 24.136 50.9892 23.2762 50.5182 22.3125H51.1875C51.4196 22.3125 51.6422 22.2203 51.8063 22.0562C51.9703 21.8921 52.0625 21.6696 52.0625 21.4375V14.4375C52.0625 14.2054 51.9703 13.9829 51.8063 13.8188C51.6422 13.6547 51.4196 13.5625 51.1875 13.5625H34.5625C34.3305 13.5625 34.1079 13.6547 33.9438 13.8188C33.7797 13.9829 33.6875 14.2054 33.6875 14.4375V21.4375C33.6875 21.6696 33.7797 21.8921 33.9438 22.0562C34.1079 22.2203 34.3305 22.3125 34.5625 22.3125H35.2319C34.7609 23.2762 34.1019 24.136 33.2938 24.8412C32.1705 25.9142 31.2771 27.2044 30.6679 28.6334C30.0587 30.0624 29.7464 31.6003 29.75 33.1537V55.125C29.75 55.3571 29.8422 55.5796 30.0063 55.7437C30.1704 55.9078 30.393 56 30.625 56H55.125C55.3571 56 55.5797 55.9078 55.7438 55.7437C55.9078 55.5796 56 55.3571 56 55.125V33.1581C56.0043 31.604 55.6923 30.0652 55.0831 28.6354C54.4739 27.2056 53.5801 25.9147 52.4563 24.8412ZM35.4375 15.3125H50.3125V20.5625H35.4375V15.3125ZM54.25 54.25H31.5V33.1581C31.4964 31.8423 31.7601 30.5394 32.2753 29.3286C32.7904 28.1177 33.5463 27.0242 34.4969 26.1144C35.9232 24.7669 36.785 23.4894 37.0782 22.3125H48.6719C48.965 23.4938 49.8269 24.7669 51.2532 26.1144C52.2038 27.0242 52.9596 28.1177 53.4748 29.3286C53.99 30.5394 54.2537 31.8423 54.25 33.1581V54.25Z" fill="white"/>
<path d="M48.125 43.75H37.625C36.4647 43.75 35.3519 44.2109 34.5314 45.0314C33.7109 45.8519 33.25 46.9647 33.25 48.125C33.25 49.2853 33.7109 50.3981 34.5314 51.2186C35.3519 52.0391 36.4647 52.5 37.625 52.5H48.125C49.2853 52.5 50.3981 52.0391 51.2186 51.2186C52.0391 50.3981 52.5 49.2853 52.5 48.125C52.5 46.9647 52.0391 45.8519 51.2186 45.0314C50.3981 44.2109 49.2853 43.75 48.125 43.75ZM35 48.125C35 47.4288 35.2766 46.7611 35.7688 46.2688C36.2611 45.7766 36.9288 45.5 37.625 45.5H42V50.75H37.625C36.9288 50.75 36.2611 50.4734 35.7688 49.9812C35.2766 49.4889 35 48.8212 35 48.125ZM48.125 50.75H43.75V45.5H48.125C48.8212 45.5 49.4889 45.7766 49.9812 46.2688C50.4734 46.7611 50.75 47.4288 50.75 48.125C50.75 48.8212 50.4734 49.4889 49.9812 49.9812C49.4889 50.4734 48.8212 50.75 48.125 50.75Z" fill="white"/>
<path d="M38.2856 41.7725C38.8606 41.7735 39.43 41.6612 39.9615 41.442C40.493 41.2228 40.9761 40.901 41.3831 40.495L48.8206 33.0575C49.6398 32.2348 50.0987 31.1204 50.0962 29.9595C50.0937 28.7985 49.6302 27.6861 48.8075 26.8669C47.9848 26.0477 46.8704 25.5889 45.7095 25.5913C44.5485 25.5938 43.4361 26.0573 42.6169 26.88L35.1794 34.3175C34.5677 34.9294 34.1512 35.7088 33.9825 36.5574C33.8137 37.4059 33.9004 38.2854 34.2314 39.0847C34.5625 39.8841 35.1231 40.5673 35.8424 41.048C36.5617 41.5288 37.4074 41.7854 38.2725 41.7856L38.2856 41.7725ZM43.855 28.1181C44.3476 27.6256 45.0156 27.3489 45.7122 27.3489C46.4088 27.3489 47.0768 27.6256 47.5694 28.1181C48.0619 28.6107 48.3387 29.2787 48.3387 29.9753C48.3387 30.6719 48.0619 31.3399 47.5694 31.8325L44.4763 34.9256L40.7619 31.2113L43.855 28.1181ZM36.4175 35.5556L39.5106 32.4625L43.225 36.1769L40.1319 39.27C39.6393 39.7626 38.9713 40.0393 38.2747 40.0393C37.5781 40.0393 36.9101 39.7626 36.4175 39.27C35.9249 38.7774 35.6482 38.1094 35.6482 37.4128C35.6482 36.7162 35.9249 36.0482 36.4175 35.5556Z" fill="white"/>
</g>
<defs>
<clipPath id="clip0_60_7">
<rect width="56" height="56" fill="white"/>
</clipPath>
</defs>
</svg>
